<svg width="20" height="20" viewBox="0 0 20 20" fill="none" xmlns="http://www.w3.org/2000/svg">
<path d="M9.66797 1.33203C14.6387 1.33203 18.668 5.36133 18.668 10.332C18.668 15.3027 14.6387 19.332 9.66797 19.332C4.69727 19.332 0.667969 15.3027 0.667969 10.332C0.667969 5.36133 4.69727 1.33203 9.66797 1.33203ZM9.66797 2.58753C7.614 2.58753 5.64416 3.40347 4.19178 4.85584C2.7394 6.30822 1.92347 8.27806 1.92347 10.332C1.92347 12.386 2.7394 14.3558 4.19178 15.8082C5.64416 17.2606 7.614 18.0765 9.66797 18.0765C11.7219 18.0765 13.6918 17.2606 15.1442 15.8082C16.5965 14.3558 17.4125 12.386 17.4125 10.332C17.4125 8.27806 16.5965 6.30822 15.1442 4.85584C13.6918 3.40347 11.7219 2.58753 9.66797 2.58753ZM8.83097 6.35493C9.17747 6.35493 9.45827 6.63663 9.45827 6.98313V11.3787L13.448 12.6342C13.6103 12.6404 13.764 12.7092 13.8767 12.8263C13.9894 12.9433 14.0524 13.0995 14.0524 13.262C14.0524 13.4245 13.9894 13.5806 13.8767 13.6977C13.764 13.8148 13.6103 13.8836 13.448 13.8897L8.83097 12.6342C8.66436 12.6342 8.50458 12.568 8.38676 12.4502C8.26895 12.3324 8.20277 12.1726 8.20277 12.006V6.98403C8.20277 6.63663 8.48357 6.35493 8.83097 6.35493Z" fill="#3D3D3D"/>
</svg>
