<svg width="18" height="18" viewBox="0 0 18 18" fill="none" xmlns="http://www.w3.org/2000/svg">
<path d="M11.775 16.1813L5.45625 9.88125C5.38125 9.80625 5.32825 9.725 5.29725 9.6375C5.26575 9.55 5.25 9.45625 5.25 9.35625C5.25 9.25625 5.26575 9.1625 5.29725 9.075C5.32825 8.9875 5.38125 8.90625 5.45625 8.83125L11.775 2.5125C11.95 2.3375 12.1687 2.25 12.4312 2.25C12.6937 2.25 12.9187 2.34375 13.1062 2.53125C13.2937 2.71875 13.3875 2.9375 13.3875 3.1875C13.3875 3.4375 13.2937 3.65625 13.1062 3.84375L7.59375 9.35625L13.1062 14.8688C13.2812 15.0438 13.3687 15.2593 13.3687 15.5153C13.3687 15.7718 13.275 15.9938 13.0875 16.1813C12.9 16.3688 12.6812 16.4625 12.4312 16.4625C12.1812 16.4625 11.9625 16.3688 11.775 16.1813Z" fill="#1D57A5"/>
</svg>
