<svg width="20" height="20" viewBox="0 0 20 20" fill="none" xmlns="http://www.w3.org/2000/svg">
<path d="M17.5573 2.76381C16.5387 1.7454 14.8875 1.7454 13.869 2.76381L3.52955 13.1023C3.45869 13.1732 3.40753 13.261 3.38081 13.3574L2.02115 18.2657C1.96523 18.4669 2.02205 18.6824 2.16966 18.8303C2.31749 18.9779 2.533 19.0347 2.73426 18.979L7.64296 17.6192C7.7394 17.5925 7.82724 17.5413 7.89809 17.4705L18.2373 7.13174C19.2542 6.11265 19.2542 4.4629 18.2373 3.44381L17.5573 2.76381ZM4.79232 13.479L13.2544 5.0175L15.9834 7.74632L7.52116 16.2078L4.79232 13.479ZM4.24719 14.5728L6.4275 16.7531L3.4116 17.5887L4.24719 14.5728ZM17.4178 6.3123L16.8032 6.92688L14.0739 4.19783L14.6887 3.58325C15.2545 3.01757 16.1718 3.01757 16.7375 3.58325L17.4178 4.26325C17.9826 4.82961 17.9826 5.74616 17.4178 6.3123Z" fill="#1D57A5" stroke="#ABB0C1" stroke-width="0.3"/>
</svg>
