<svg width="30" height="30" viewBox="0 0 30 30" fill="none" xmlns="http://www.w3.org/2000/svg">
<path d="M22.3643 3.80078H16.2178C16.0268 3.80064 15.8434 3.87614 15.7078 4.01078L3.42 16.2956C3.15101 16.5659 3 16.9318 3 17.3131C3 17.6945 3.15101 18.0603 3.42 18.3306L9.26992 24.1805C9.54032 24.4495 9.90623 24.6006 10.2877 24.6006C10.6691 24.6006 11.035 24.4495 11.3054 24.1805L23.5897 11.9007C23.7244 11.7651 23.7999 11.5818 23.7997 11.3907V5.24077C23.8007 5.05178 23.7642 4.86449 23.6924 4.68966C23.6207 4.51483 23.5151 4.35592 23.3816 4.22208C23.2482 4.08824 23.0896 3.98211 22.915 3.90981C22.7404 3.8375 22.5532 3.80045 22.3643 3.80078Z" stroke="#1D57A5" stroke-width="2" stroke-linecap="round" stroke-linejoin="round"/>
<path d="M19.7992 9.40113C19.4828 9.40113 19.1734 9.3073 18.9103 9.13149C18.6472 8.95568 18.4421 8.7058 18.321 8.41344C18.1999 8.12108 18.1682 7.79938 18.23 7.48901C18.2917 7.17865 18.4441 6.89356 18.6678 6.6698C18.8916 6.44603 19.1767 6.29365 19.4871 6.23192C19.7974 6.17018 20.1191 6.20187 20.4115 6.32296C20.7038 6.44406 20.9537 6.64914 21.1295 6.91225C21.3053 7.17537 21.3992 7.48471 21.3992 7.80115C21.3992 8.22549 21.2306 8.63245 20.9306 8.93251C20.6305 9.23256 20.2235 9.40113 19.7992 9.40113Z" fill="#1D57A5"/>
<path d="M13.6992 26.2009L26.7991 13.1011C26.8642 13.0354 26.9154 12.9573 26.9498 12.8714C26.9842 12.7855 27.0009 12.6936 26.999 12.6011V6.20117" stroke="#1D57A5" stroke-width="2" stroke-linecap="round" stroke-linejoin="round"/>
</svg>
