<svg width="30" height="30" viewBox="0 0 30 30" fill="none" xmlns="http://www.w3.org/2000/svg">
<g clip-path="url(#clip0_528_7616)">
<path d="M7.5 23.7499H22.5V11.4461L15 4.62865L7.5 11.4461V23.7499ZM23.75 26.2499H6.25C5.91848 26.2499 5.60054 26.1182 5.36612 25.8838C5.1317 25.6494 5 25.3314 5 24.9999V13.7499H1.25L14.1587 2.0149C14.3889 1.8055 14.6889 1.68945 15 1.68945C15.3111 1.68945 15.6111 1.8055 15.8413 2.0149L28.75 13.7499H25V24.9999C25 25.3314 24.8683 25.6494 24.6339 25.8838C24.3995 26.1182 24.0815 26.2499 23.75 26.2499ZM9.375 16.2499H11.875C11.875 17.0787 12.2042 17.8736 12.7903 18.4596C13.3763 19.0457 14.1712 19.3749 15 19.3749C15.8288 19.3749 16.6237 19.0457 17.2097 18.4596C17.7958 17.8736 18.125 17.0787 18.125 16.2499H20.625C20.625 17.7417 20.0324 19.1725 18.9775 20.2274C17.9226 21.2823 16.4918 21.8749 15 21.8749C13.5082 21.8749 12.0774 21.2823 11.0225 20.2274C9.96763 19.1725 9.375 17.7417 9.375 16.2499Z" fill="#1D57A5"/>
</g>
<defs>
<clipPath id="clip0_528_7616">
<rect width="30" height="30" fill="white"/>
</clipPath>
</defs>
</svg>
