<svg width="20" height="20" viewBox="0 0 20 20" fill="none" xmlns="http://www.w3.org/2000/svg">
<path d="M6.98602 2.06519L6.26902 2.28119C5.6306 2.47372 5.06046 2.84462 4.62572 3.35023C4.19097 3.85585 3.9097 4.47513 3.81502 5.1352C3.51802 7.2032 4.18202 9.6212 5.78302 12.3942C7.38002 15.1602 9.13802 16.9422 11.073 17.7222C11.6948 17.9728 12.3754 18.0395 13.0339 17.9146C13.6925 17.7896 14.3013 17.4781 14.788 17.0172L15.33 16.5032C15.682 16.1701 15.901 15.7206 15.9464 15.2381C15.9919 14.7557 15.8606 14.2731 15.577 13.8802L14.221 12.0002C14.0377 11.7464 13.7795 11.5563 13.4828 11.4566C13.186 11.3569 12.8654 11.3526 12.566 11.4442L10.515 12.0712L10.462 12.0812C10.236 12.1142 9.71402 11.6252 9.06402 10.4992C8.38402 9.3212 8.24402 8.63219 8.43102 8.45419L9.47402 7.48119C9.85544 7.12566 10.116 6.65964 10.2191 6.14851C10.3222 5.63739 10.2627 5.1068 10.049 4.63119L9.38702 3.16019C9.18796 2.71754 8.83472 2.36237 8.39315 2.16091C7.95158 1.95944 7.45182 1.92542 6.98702 2.06519H6.98602ZM8.47602 3.57019L9.13602 5.04119C9.26456 5.32643 9.3005 5.64476 9.2388 5.95147C9.1771 6.25818 9.02086 6.53786 8.79202 6.75119L7.74602 7.72519C7.07702 8.35919 7.29902 9.4412 8.19902 10.9992C9.04502 12.4652 9.81702 13.1892 10.647 13.0632L10.771 13.0372L12.859 12.4002C12.9588 12.3695 13.0657 12.3709 13.1647 12.4041C13.2637 12.4372 13.3498 12.5006 13.411 12.5852L14.767 14.4652C14.909 14.6616 14.9748 14.903 14.9522 15.1443C14.9296 15.3857 14.8201 15.6106 14.644 15.7772L14.101 16.2912C13.7534 16.6202 13.3186 16.8425 12.8483 16.9317C12.378 17.0209 11.892 16.9731 11.448 16.7942C9.75002 16.1102 8.14502 14.4832 6.65002 11.8942C5.15102 9.2992 4.54402 7.09219 4.80502 5.27719C4.87259 4.80562 5.07348 4.36318 5.38404 4.00194C5.69461 3.6407 6.10192 3.37572 6.55802 3.23819L7.27502 3.02219C7.50748 2.95234 7.75741 2.96942 7.9782 3.07025C8.199 3.17108 8.37558 3.34877 8.47502 3.57019H8.47602Z" fill="#3D3D3D"/>
</svg>
