<svg width="30" height="30" viewBox="0 0 30 30" fill="none" xmlns="http://www.w3.org/2000/svg">
<path d="M2.88676 14.0525C2.84082 13.8683 2.83744 13.676 2.87689 13.4903C2.91634 13.3045 2.99759 13.1302 3.11446 12.9806C3.23133 12.831 3.38075 12.7099 3.55139 12.6266C3.72203 12.5434 3.90939 12.5001 4.09926 12.5H25.8993C26.0891 12.5001 26.2765 12.5434 26.4471 12.6266C26.6178 12.7099 26.7672 12.831 26.8841 12.9806C27.0009 13.1302 27.0822 13.3045 27.1216 13.4903C27.1611 13.676 27.1577 13.8683 27.1118 14.0525L24.848 23.1063C24.7128 23.6471 24.4007 24.1272 23.9614 24.4704C23.522 24.8135 22.9805 24.9999 22.423 25H7.57551C7.01803 24.9999 6.47656 24.8135 6.03718 24.4704C5.59779 24.1272 5.2857 23.6471 5.15051 23.1063L2.88676 14.0538V14.0525Z" stroke="#1D57A5" stroke-width="2.1" stroke-linejoin="round"/>
<path d="M11.25 17.5V20M18.75 17.5V20M7.5 12.5L12.5 5M22.5 12.5L17.5 5" stroke="#1D57A5" stroke-width="2.1" stroke-linecap="round"/>
</svg>
