<svg width="20" height="20" viewBox="0 0 20 20" fill="none" xmlns="http://www.w3.org/2000/svg">
<path d="M9.54466 3.625C8.91506 3.625 8.29959 3.8117 7.7761 4.16149C7.2526 4.51128 6.84459 5.00845 6.60365 5.59012C6.36271 6.1718 6.29967 6.81186 6.4225 7.42937C6.54533 8.04688 6.84851 8.61409 7.29371 9.05929C7.7389 9.50449 8.30612 9.80767 8.92362 9.9305C9.54113 10.0533 10.1812 9.99029 10.7629 9.74935C11.3445 9.50841 11.8417 9.10039 12.1915 8.5769C12.5413 8.0534 12.728 7.43794 12.728 6.80833C12.728 5.96406 12.3926 5.15437 11.7956 4.55738C11.1986 3.96039 10.3889 3.625 9.54466 3.625ZM9.54466 8.88056C9.13482 8.88056 8.73417 8.75902 8.3934 8.53132C8.05262 8.30362 7.78702 7.97999 7.63018 7.60134C7.47334 7.22269 7.4323 6.80603 7.51226 6.40406C7.59222 6.00209 7.78957 5.63286 8.07938 5.34305C8.36919 5.05325 8.73842 4.85589 9.14039 4.77593C9.54236 4.69597 9.95902 4.73701 10.3377 4.89385C10.7163 5.05069 11.04 5.31629 11.2677 5.65707C11.4954 5.99784 11.6169 6.39849 11.6169 6.80833C11.6154 7.35696 11.3964 7.88261 11.008 8.27003C10.6195 8.65744 10.0933 8.875 9.54466 8.875V8.88056Z" fill="white"/>
<path d="M9.54444 1C7.814 1.00145 6.15444 1.6876 4.92823 2.90861C3.70202 4.12961 3.00881 5.78624 3 7.51667C3 10.1111 4.45556 12.2833 5.52222 13.8667L5.71667 14.1556C6.77793 15.6937 7.91643 17.1771 9.12778 18.6L9.55 19.0944L9.97222 18.6C11.1834 17.1769 12.3219 15.6936 13.3833 14.1556L13.5778 13.8611C14.6389 12.2778 16.0944 10.1111 16.0944 7.51667C16.0856 5.78528 15.3917 4.12781 14.1642 2.90665C12.9368 1.68549 11.2759 0.999978 9.54444 1ZM12.65 13.2222L12.45 13.5167C11.4944 14.95 10.2278 16.5556 9.54444 17.35C8.88889 16.5556 7.59444 14.95 6.63889 13.5167L6.44444 13.2222C5.46111 11.7556 4.11111 9.75 4.11111 7.49444C4.11111 6.78093 4.25165 6.0744 4.5247 5.4152C4.79775 4.756 5.19797 4.15703 5.7025 3.6525C6.20703 3.14797 6.80599 2.74775 7.4652 2.4747C8.1244 2.20165 8.83093 2.06111 9.54444 2.06111C10.258 2.06111 10.9645 2.20165 11.6237 2.4747C12.2829 2.74775 12.8819 3.14797 13.3864 3.6525C13.8909 4.15703 14.2911 4.756 14.5642 5.4152C14.8372 6.0744 14.9778 6.78093 14.9778 7.49444C14.9778 9.77222 13.6333 11.7778 12.65 13.2222Z" fill="white"/>
</svg>
