<svg width="70" height="70" viewBox="0 0 70 70" fill="none" xmlns="http://www.w3.org/2000/svg">
<path d="M52.7178 4.5332L64.8891 17.2207V65.4682H19.4219V65.6257H65.0444V17.3804L52.7178 4.5332Z" fill="#909090"/>
<path d="M52.5679 4.375H19.2676V65.4675H64.8901V17.2222L52.5657 4.375" fill="#F4F4F4"/>
<path d="M18.9332 7.65625H4.95508V22.5903H48.9238V7.65625H18.9332Z" fill="#7A7B7C"/>
<path d="M49.1567 22.3356H5.23828V7.39062H49.1567V22.3356Z" fill="#DD2025"/>
<path d="M19.8005 9.91789H16.9414V20.4179H19.1902V16.8763L19.6867 16.9048C20.1692 16.8965 20.6472 16.81 21.102 16.6488C21.5008 16.5117 21.8677 16.2951 22.1805 16.0123C22.4987 15.7428 22.7497 15.4027 22.9133 15.0191C23.1327 14.3815 23.211 13.7038 23.143 13.0329C23.1293 12.5536 23.0453 12.079 22.8936 11.6241C22.7555 11.2958 22.5506 10.9998 22.2918 10.755C22.0331 10.5102 21.7262 10.322 21.3908 10.2023C21.1007 10.0973 20.8011 10.0211 20.4961 9.97476C20.2652 9.93913 20.0319 9.92012 19.7983 9.91789M19.3848 14.936H19.1902V11.6985H19.6123C19.7987 11.6851 19.9856 11.7137 20.1594 11.7822C20.3332 11.8507 20.4894 11.9575 20.6164 12.0944C20.8796 12.4467 21.0202 12.8754 21.0167 13.3151C21.0167 13.8532 21.0167 14.341 20.5311 14.6844C20.1812 14.8769 19.783 14.9635 19.3848 14.9338M27.4152 9.88945C27.1723 9.88945 26.9361 9.90695 26.7698 9.91351L26.2492 9.92664H24.543V20.4266H26.5511C27.3185 20.4477 28.0826 20.3176 28.7998 20.0438C29.3772 19.8148 29.8884 19.4457 30.2873 18.9698C30.6753 18.4895 30.9538 17.9303 31.1033 17.3313C31.2751 16.6529 31.359 15.9552 31.3527 15.2554C31.3951 14.4289 31.3311 13.6003 31.1623 12.7901C31.0022 12.1937 30.7022 11.644 30.2873 11.1866C29.9618 10.8173 29.5634 10.5194 29.117 10.3116C28.7337 10.1343 28.3305 10.0035 27.9161 9.92226C27.7513 9.89504 27.5844 9.88259 27.4173 9.88508M27.0192 18.4973H26.8005V11.7948H26.8289C27.2799 11.7429 27.7362 11.8242 28.1414 12.0288C28.4382 12.2658 28.68 12.5643 28.8502 12.9038C29.0338 13.2611 29.1397 13.6533 29.1608 14.0545C29.1805 14.5357 29.1608 14.9295 29.1608 15.2554C29.1697 15.6308 29.1455 16.0064 29.0886 16.3776C29.0212 16.7587 28.8965 17.1274 28.7189 17.4713C28.5179 17.791 28.2462 18.0604 27.9248 18.2588C27.655 18.4334 27.3354 18.5148 27.0148 18.4907M38.1273 9.92664H32.8117V20.4266H35.0605V16.2616H37.9042V14.3104H35.0605V11.8779H38.123V9.92664" fill="#464648"/>
<path d="M47.6465 44.308C47.6465 44.308 54.6202 43.0437 54.6202 45.4259C54.6202 47.8081 50.2999 46.839 47.6465 44.308ZM42.4905 44.4896C41.3826 44.7344 40.3028 45.0929 39.2684 45.5593L40.1434 43.5905C41.0184 41.6218 41.9262 38.9377 41.9262 38.9377C42.9703 40.695 44.1851 42.3451 45.553 43.864C44.5215 44.0178 43.4991 44.2281 42.4905 44.494V44.4896ZM39.7299 30.2709C39.7299 28.1949 40.4015 27.6284 40.9243 27.6284C41.4471 27.6284 42.0355 27.8799 42.0552 29.6824C41.8849 31.4949 41.5054 33.2816 40.9243 35.0068C40.1283 33.5583 39.7164 31.9302 39.7277 30.2774L39.7299 30.2709ZM29.5602 53.2746C27.4209 51.9949 34.0468 48.0552 35.2477 47.9284C35.2412 47.9305 31.8002 54.6134 29.5602 53.2746V53.2746ZM56.6568 45.7081C56.6349 45.4893 56.438 43.0677 52.1287 43.1705C50.3325 43.1416 48.5371 43.2682 46.7627 43.549C45.0439 41.8174 43.5638 39.8642 42.3615 37.7412C43.119 35.5524 43.5774 33.2714 43.7243 30.9599C43.6609 28.3349 43.033 26.8299 41.0205 26.8518C39.008 26.8737 38.7149 28.6346 38.9796 31.2552C39.2389 33.0163 39.728 34.7357 40.4343 36.3696C40.4343 36.3696 39.5046 39.2637 38.2752 42.1424C37.0459 45.0212 36.2059 46.5305 36.2059 46.5305C34.0681 47.2265 32.0556 48.2604 30.2449 49.593C28.4424 51.2709 27.7096 52.5593 28.659 53.8477C29.4771 54.959 32.3405 55.2105 34.8999 51.8571C36.2598 50.1251 37.5022 48.3039 38.6187 46.4059C38.6187 46.4059 42.5212 45.3362 43.7352 45.043C44.9493 44.7499 46.4171 44.518 46.4171 44.518C46.4171 44.518 49.9805 48.1034 53.4171 47.9765C56.8537 47.8496 56.6874 45.9224 56.6655 45.7124" fill="#DD2025"/>
<path d="M52.3984 4.54297V17.3902H64.7206L52.3984 4.54297Z" fill="#909090"/>
<path d="M52.5684 4.375V17.2222H64.8905L52.5684 4.375Z" fill="#F4F4F4"/>
<path d="M19.6325 9.74992H16.7734V20.2499H19.0309V16.7105L19.5297 16.739C20.0122 16.7307 20.4902 16.6442 20.945 16.483C21.3438 16.3458 21.7106 16.1293 22.0234 15.8465C22.3393 15.5763 22.588 15.2363 22.7497 14.8534C22.9691 14.2157 23.0474 13.538 22.9794 12.8671C22.9657 12.3878 22.8817 11.9132 22.73 11.4584C22.5919 11.13 22.387 10.834 22.1282 10.5892C21.8695 10.3445 21.5627 10.1562 21.2272 10.0365C20.9358 9.93046 20.6347 9.85352 20.3281 9.80679C20.0972 9.77116 19.864 9.75215 19.6303 9.74992M19.2169 14.768H19.0222V11.5305H19.4466C19.6329 11.5171 19.8199 11.5457 19.9937 11.6142C20.1674 11.6828 20.3236 11.7895 20.4506 11.9265C20.7138 12.2787 20.8544 12.7074 20.8509 13.1471C20.8509 13.6852 20.8509 14.173 20.3653 14.5165C20.0155 14.7089 19.6172 14.7955 19.2191 14.7659M27.2472 9.72148C27.0044 9.72148 26.7681 9.73898 26.6019 9.74554L26.0878 9.75867H24.3816V20.2587H26.3897C27.1571 20.2797 27.9212 20.1496 28.6384 19.8759C29.2157 19.6469 29.727 19.2778 30.1259 18.8018C30.5139 18.3215 30.7924 17.7624 30.9419 17.1634C31.1137 16.4849 31.1975 15.7872 31.1912 15.0874C31.2337 14.2609 31.1697 13.4323 31.0009 12.6221C30.8408 12.0257 30.5408 11.4761 30.1259 11.0187C29.8004 10.6493 29.402 10.3514 28.9556 10.1437C28.5723 9.9663 28.1691 9.83557 27.7547 9.75429C27.5899 9.72707 27.423 9.71462 27.2559 9.71711M26.8578 18.3293H26.6391V11.6268H26.6675C27.1185 11.5749 27.5748 11.6563 27.98 11.8609C28.2768 12.0978 28.5186 12.3964 28.6887 12.7359C28.8724 13.0932 28.9783 13.4853 28.9994 13.8865C29.0191 14.3677 28.9994 14.7615 28.9994 15.0874C29.0083 15.4629 28.9841 15.8384 28.9272 16.2096C28.8598 16.5907 28.7351 16.9595 28.5575 17.3034C28.3564 17.6231 28.0848 17.8925 27.7634 18.0909C27.4936 18.2654 27.1739 18.3469 26.8534 18.3227M37.9594 9.75867H32.6438V20.2587H34.8925V16.0937H37.7362V14.1424H34.8925V11.7099H37.955V9.75867" fill="white"/>
</svg>
