<svg width="20" height="20" viewBox="0 0 20 20" fill="none" xmlns="http://www.w3.org/2000/svg">
<path d="M10 1C14.9707 1 19 5.0293 19 10C19 14.9707 14.9707 19 10 19C5.0293 19 1 14.9707 1 10C1 5.0293 5.0293 1 10 1ZM10 2.2555C7.94603 2.2555 5.97619 3.07144 4.52381 4.52381C3.07144 5.97619 2.2555 7.94603 2.2555 10C2.2555 12.054 3.07144 14.0238 4.52381 15.4762C5.97619 16.9286 7.94603 17.7445 10 17.7445C12.054 17.7445 14.0238 16.9286 15.4762 15.4762C16.9286 14.0238 17.7445 12.054 17.7445 10C17.7445 7.94603 16.9286 5.97619 15.4762 4.52381C14.0238 3.07144 12.054 2.2555 10 2.2555ZM9.163 6.0229C9.5095 6.0229 9.7903 6.3046 9.7903 6.6511V11.0467L13.78 12.3022C13.9424 12.3083 14.0961 12.3772 14.2088 12.4942C14.3215 12.6113 14.3844 12.7675 14.3844 12.9299C14.3844 13.0924 14.3215 13.2486 14.2088 13.3657C14.0961 13.4827 13.9424 13.5515 13.78 13.5577L9.163 12.3022C8.99639 12.3022 8.83661 12.236 8.7188 12.1182C8.60099 12.0004 8.5348 11.8406 8.5348 11.674V6.652C8.5348 6.3046 8.8156 6.0229 9.163 6.0229Z" fill="white"/>
</svg>
