<svg width="34" height="34" viewBox="0 0 34 34" fill="none" xmlns="http://www.w3.org/2000/svg">
<path d="M16.9993 4.25C17.3604 4.2504 17.7077 4.38866 17.9703 4.63654C18.2328 4.88441 18.3908 5.22318 18.412 5.58364C18.4332 5.9441 18.3159 6.29904 18.0841 6.57593C17.8524 6.85282 17.5237 7.03077 17.1651 7.07342L16.9993 7.08333H9.91602C9.56903 7.08338 9.23412 7.21077 8.97482 7.44135C8.71552 7.67192 8.54986 7.98964 8.50927 8.33425L8.49935 8.5V25.5C8.49939 25.847 8.62679 26.1819 8.85736 26.4412C9.08794 26.7005 9.40566 26.8662 9.75027 26.9067L9.91602 26.9167H16.291C16.6521 26.9171 16.9994 27.0553 17.262 27.3032C17.5245 27.5511 17.6825 27.8898 17.7037 28.2503C17.7248 28.6108 17.6076 28.9657 17.3758 29.2426C17.1441 29.5195 16.8153 29.6974 16.4568 29.7401L16.291 29.75H9.91602C8.83197 29.7501 7.78887 29.3359 7.00015 28.5922C6.21142 27.8485 5.7367 26.8315 5.6731 25.7493L5.66602 25.5V8.5C5.66596 7.41595 6.08014 6.37285 6.82383 5.58413C7.56753 4.79541 8.5845 4.32068 9.66668 4.25708L9.91602 4.25H16.9993ZM25.0843 11.9907L29.0906 15.9984C29.3562 16.2641 29.5054 16.6244 29.5054 17C29.5054 17.3756 29.3562 17.7359 29.0906 18.0016L25.0843 22.0093C24.8184 22.275 24.458 22.4241 24.0822 22.424C23.7064 22.4239 23.346 22.2744 23.0804 22.0086C22.8148 21.7428 22.6656 21.3823 22.6657 21.0065C22.6659 20.6307 22.8153 20.2704 23.0811 20.0047L24.6692 18.4167H16.9993C16.6236 18.4167 16.2633 18.2674 15.9976 18.0017C15.7319 17.7361 15.5827 17.3757 15.5827 17C15.5827 16.6243 15.7319 16.2639 15.9976 15.9983C16.2633 15.7326 16.6236 15.5833 16.9993 15.5833H24.6692L23.0811 13.9952C22.8153 13.7296 22.6659 13.3693 22.6657 12.9935C22.6656 12.6177 22.8148 12.2572 23.0804 11.9914C23.346 11.7256 23.7064 11.5761 24.0822 11.576C24.458 11.5759 24.8184 11.725 25.0843 11.9907Z" fill="#1D57A5"/>
</svg>
