<svg width="20" height="20" viewBox="0 0 20 20" fill="none" xmlns="http://www.w3.org/2000/svg">
<path d="M7.23993 2.08473L6.52293 2.30073C5.88451 2.49325 5.31437 2.86415 4.87962 3.36976C4.44487 3.87538 4.16361 4.49466 4.06893 5.15473C3.77193 7.22273 4.43593 9.64073 6.03693 12.4137C7.63393 15.1797 9.39193 16.9617 11.3269 17.7417C11.9487 17.9923 12.6293 18.0591 13.2878 17.9341C13.9464 17.8091 14.5552 17.4976 15.0419 17.0367L15.5839 16.5227C15.9359 16.1896 16.1549 15.7401 16.2004 15.2576C16.2458 14.7752 16.1145 14.2927 15.8309 13.8997L14.4749 12.0197C14.2916 11.7659 14.0334 11.5758 13.7367 11.4761C13.4399 11.3764 13.1193 11.3721 12.8199 11.4637L10.7689 12.0907L10.7159 12.1007C10.4899 12.1337 9.96793 11.6447 9.31793 10.5187C8.63793 9.34073 8.49793 8.65173 8.68493 8.47373L9.72793 7.50073C10.1093 7.14519 10.3699 6.67917 10.473 6.16804C10.5761 5.65692 10.5167 5.12634 10.3029 4.65073L9.64093 3.17973C9.44187 2.73707 9.08863 2.3819 8.64706 2.18044C8.20549 1.97897 7.70573 1.94495 7.24093 2.08473H7.23993ZM8.72993 3.58973L9.38993 5.06073C9.51847 5.34596 9.55441 5.66429 9.49271 5.971C9.43101 6.27771 9.27476 6.55739 9.04593 6.77073L7.99993 7.74473C7.33093 8.37873 7.55293 9.46073 8.45293 11.0187C9.29893 12.4847 10.0709 13.2087 10.9009 13.0827L11.0249 13.0567L13.1129 12.4197C13.2127 12.3891 13.3196 12.3904 13.4186 12.4236C13.5176 12.4568 13.6038 12.5201 13.6649 12.6047L15.0209 14.4847C15.1629 14.6812 15.2287 14.9225 15.2061 15.1639C15.1835 15.4052 15.074 15.6301 14.8979 15.7967L14.3549 16.3107C14.0073 16.6398 13.5725 16.8621 13.1022 16.9512C12.6319 17.0404 12.1459 16.9927 11.7019 16.8137C10.0039 16.1297 8.39893 14.5027 6.90393 11.9137C5.40493 9.31873 4.79793 7.11173 5.05893 5.29673C5.12649 4.82516 5.32738 4.38271 5.63795 4.02147C5.94852 3.66024 6.35583 3.39525 6.81193 3.25773L7.52893 3.04173C7.76139 2.97187 8.01132 2.98896 8.23211 3.08978C8.4529 3.19061 8.62949 3.36831 8.72893 3.58973H8.72993Z" fill="white"/>
</svg>
