<svg width="20" height="20" viewBox="0 0 20 20" fill="none" xmlns="http://www.w3.org/2000/svg">
<g clip-path="url(#clip0_106_3415)">
<path d="M9.99974 3.73242C9.37014 3.73242 8.75467 3.91912 8.23118 4.26891C7.70768 4.6187 7.29966 5.11587 7.05872 5.69755C6.81779 6.27922 6.75474 6.91929 6.87757 7.53679C7.0004 8.1543 7.30359 8.72152 7.74878 9.16671C8.19398 9.61191 8.7612 9.91509 9.3787 10.0379C9.99621 10.1608 10.6363 10.0977 11.2179 9.85677C11.7996 9.61583 12.2968 9.20782 12.6466 8.68432C12.9964 8.16082 13.1831 7.54536 13.1831 6.91576C13.1831 6.07148 12.8477 5.26179 12.2507 4.6648C11.6537 4.06781 10.844 3.73242 9.99974 3.73242ZM9.99974 8.98798C9.58989 8.98798 9.18925 8.86644 8.84848 8.63875C8.5077 8.41105 8.2421 8.08741 8.08526 7.70876C7.92842 7.33011 7.88738 6.91346 7.96734 6.51148C8.04729 6.10951 8.24465 5.74028 8.53446 5.45047C8.82426 5.16067 9.1935 4.96331 9.59547 4.88335C9.99744 4.80339 10.4141 4.84443 10.7927 5.00127C11.1714 5.15811 11.495 5.42371 11.7227 5.76449C11.9504 6.10527 12.072 6.50591 12.072 6.91576C12.0705 7.46438 11.8515 7.99003 11.4631 8.37745C11.0746 8.76486 10.5484 8.98242 9.99974 8.98242V8.98798Z" fill="#3D3D3D"/>
<path d="M9.99952 1.11133C8.26908 1.11277 6.60951 1.79893 5.3833 3.01994C4.15709 4.24094 3.46388 5.89757 3.45508 7.628C3.45508 10.2224 4.91063 12.3947 5.9773 13.978L6.17174 14.2669C7.23301 15.805 8.37151 17.2884 9.58286 18.7113L10.0051 19.2058L10.4273 18.7113C11.6385 17.2883 12.777 15.8049 13.8384 14.2669L14.0329 13.9724C15.094 12.3891 16.5495 10.2224 16.5495 7.628C16.5407 5.89661 15.8467 4.23914 14.6193 3.01798C13.3919 1.79682 11.7309 1.11131 9.99952 1.11133ZM13.1051 13.3336L12.9051 13.628C11.9495 15.0613 10.6829 16.6669 9.99952 17.4613C9.34397 16.6669 8.04952 15.0613 7.09397 13.628L6.89952 13.3336C5.91619 11.8669 4.56619 9.86133 4.56619 7.60577C4.56619 6.89226 4.70673 6.18573 4.97978 5.52653C5.25283 4.86732 5.65304 4.26836 6.15758 3.76383C6.66211 3.25929 7.26107 2.85908 7.92028 2.58603C8.57948 2.31298 9.28601 2.17244 9.99952 2.17244C10.713 2.17244 11.4196 2.31298 12.0788 2.58603C12.738 2.85908 13.3369 3.25929 13.8415 3.76383C14.346 4.26836 14.7462 4.86732 15.0193 5.52653C15.2923 6.18573 15.4329 6.89226 15.4329 7.60577C15.4329 9.88355 14.0884 11.8891 13.1051 13.3336Z" fill="#3D3D3D"/>
</g>
<defs>
<clipPath id="clip0_106_3415">
<rect width="20" height="20" fill="white"/>
</clipPath>
</defs>
</svg>
